<svg width="40" height="40" viewBox="0 0 40 40" fill="none" xmlns="http://www.w3.org/2000/svg">
<path d="M0 10C0 4.47715 4.47715 0 10 0H30C35.5228 0 40 4.47715 40 10V30C40 35.5228 35.5228 40 30 40H10C4.47715 40 0 35.5228 0 30V10Z" fill="white"/>
<path d="M25.8333 10.0833H14.1667C10.6667 10.0833 8.33333 11.8333 8.33333 15.9167V24.0833C8.33333 28.1667 10.6667 29.9167 14.1667 29.9167H25.8333C29.3333 29.9167 31.6667 28.1667 31.6667 24.0833V15.9167C31.6667 11.8333 29.3333 10.0833 25.8333 10.0833ZM26.3817 17.1883L22.73 20.105C21.96 20.7233 20.98 21.0267 20 21.0267C19.02 21.0267 18.0283 20.7233 17.27 20.105L13.6183 17.1883C13.245 16.885 13.1867 16.325 13.4783 15.9517C13.7817 15.5783 14.33 15.5083 14.7033 15.8117L18.355 18.7283C19.2417 19.44 20.7467 19.44 21.6333 18.7283L25.285 15.8117C25.6583 15.5083 26.2183 15.5667 26.51 15.9517C26.8133 16.325 26.755 16.885 26.3817 17.1883Z" fill="#05479E"/>
</svg>
