<svg width="32" height="32" viewBox="0 0 32 32" fill="none" xmlns="http://www.w3.org/2000/svg">
    <path
        d="M0 8C0 3.58172 3.58172 0 8 0H24C28.4183 0 32 3.58172 32 8V24C32 28.4183 28.4183 32 24 32H8C3.58172 32 0 28.4183 0 24V8Z"
        fill="white" />
    <path fill-rule="evenodd" clip-rule="evenodd"
        d="M16 6.86667C10.848 6.86667 6.66667 11.048 6.66667 16.2C6.66667 21.352 10.848 25.5333 16 25.5333C21.152 25.5333 25.3333 21.352 25.3333 16.2C25.3333 11.048 21.152 6.86667 16 6.86667ZM18.0655 12.077C18.5059 11.9652 18.9647 11.94 19.3473 12.2457C19.7299 12.5513 19.8087 13.0059 19.7993 13.462C19.79 13.9081 19.6919 14.4896 19.5724 15.1971L19.1917 17.4533C19.0868 18.0744 18.9998 18.5905 18.8755 18.9733C18.7465 19.3707 18.5429 19.7363 18.1293 19.9115C17.7157 20.0866 17.3129 19.9779 16.9394 19.7934C16.5798 19.6156 16.1509 19.318 15.6348 18.9599L14.5414 18.2012L14.5384 18.1991C14.4621 18.1464 13.925 17.7752 14.3653 17.2555C14.8403 16.6947 15.4532 16.134 15.9679 15.6631C16.6134 15.0726 17.1043 14.6234 16.9746 14.4932C16.8382 14.3562 16.015 14.973 15.0753 15.6771C14.4095 16.176 13.6851 16.7188 13.105 17.0683C12.6388 17.3492 12.4057 17.4826 11.8801 17.2555C11.3998 17.0479 10.9276 16.7604 10.8255 16.2345C10.8012 16.1095 10.7942 15.9817 10.8047 15.8547C10.8489 15.3207 11.2871 14.9831 11.7419 14.724C12.2189 14.4524 12.9101 14.1632 13.7784 13.7999L16.433 12.6892C17.0927 12.4132 17.6347 12.1864 18.0655 12.077Z"
        fill="#05479E" />
</svg>