<svg width="32" height="32" viewBox="0 0 32 32" fill="none" xmlns="http://www.w3.org/2000/svg">
    <path
        d="M0 8C0 3.58172 3.58172 0 8 0H24C28.4183 0 32 3.58172 32 8V24C32 28.4183 28.4183 32 24 32H8C3.58172 32 0 28.4183 0 24V8Z"
        fill="white" />
    <path
        d="M13.34 11.7907C12.8173 11.7907 12.4067 12.2107 12.4067 12.724C12.4067 13.2373 12.8267 13.6573 13.34 13.6573C13.8533 13.6573 14.2733 13.2373 14.2733 12.724C14.2733 12.2107 13.8533 11.7907 13.34 11.7907Z"
        fill="#05479E" />
    <path
        d="M24.8293 9.504C24.0453 7.684 22.3187 6.66667 19.9107 6.66667H12.0893C9.09333 6.66667 6.66667 9.09333 6.66667 12.0893V19.9107C6.66667 22.3187 7.684 24.0453 9.504 24.8293C9.68133 24.904 9.88667 24.8573 10.0173 24.7267L24.7267 10.0173C24.8667 9.87733 24.9133 9.672 24.8293 9.504ZM14.628 16.224C14.264 16.5787 13.788 16.7467 13.312 16.7467C12.836 16.7467 12.36 16.5693 11.996 16.224C11.044 15.328 9.99867 13.9 10.4 12.2013C10.7547 10.6613 12.1173 9.97067 13.312 9.97067C14.5067 9.97067 15.8693 10.6613 16.224 12.2107C16.616 13.9 15.5707 15.328 14.628 16.224Z"
        fill="#05479E" />
    <path
        d="M22.972 23.9613C23.1773 24.1667 23.1493 24.5027 22.8973 24.6427C22.076 25.1 21.0773 25.3333 19.9107 25.3333H12.0893C11.8187 25.3333 11.7067 25.016 11.8933 24.8293L17.5307 19.192C17.7173 19.0053 18.0067 19.0053 18.1933 19.192L22.972 23.9613Z"
        fill="#05479E" />
    <path
        d="M25.3333 12.0893V19.9107C25.3333 21.0773 25.1 22.0853 24.6427 22.8973C24.5027 23.1493 24.1667 23.168 23.9613 22.972L19.1827 18.1933C18.996 18.0067 18.996 17.7173 19.1827 17.5307L24.82 11.8933C25.016 11.7067 25.3333 11.8187 25.3333 12.0893Z"
        fill="#05479E" />
</svg>