<svg width="32" height="32" viewBox="0 0 32 32" fill="none" xmlns="http://www.w3.org/2000/svg">
    <path
        d="M0 8C0 3.58172 3.58172 0 8 0H24C28.4183 0 32 3.58172 32 8V24C32 28.4183 28.4183 32 24 32H8C3.58172 32 0 28.4183 0 24V8Z"
        fill="white" />
    <path fill-rule="evenodd" clip-rule="evenodd"
        d="M16.0001 7.13339C18.0961 7.13339 19.3753 7.1209 20.4335 7.48011C22.3568 8.133 23.8671 9.64329 24.52 11.5666C24.8792 12.6248 24.8667 13.9039 24.8667 16.0001C24.8667 18.0962 24.8792 19.3753 24.52 20.4335C23.8671 22.3568 22.3568 23.8671 20.4335 24.52C19.3753 24.8792 18.0962 24.8667 16.0001 24.8667C13.9039 24.8667 12.6248 24.8792 11.5666 24.52C9.64329 23.8671 8.133 22.3568 7.48011 20.4335C7.1209 19.3753 7.13339 18.0962 7.13339 16.0001C7.13339 13.904 7.1209 12.6248 7.48011 11.5666C8.133 9.64329 9.64329 8.133 11.5666 7.48011C12.6248 7.1209 13.9039 7.13339 16.0001 7.13339ZM19.2667 11.8001C19.2667 11.2846 19.6846 10.8667 20.2001 10.8667H20.2019C20.7173 10.8667 21.1352 11.2846 21.1352 11.8001C21.1352 12.3155 20.7173 12.7334 20.2019 12.7334H20.2001C19.6846 12.7334 19.2667 12.3155 19.2667 11.8001ZM16.0001 14.1334C14.9691 14.1334 14.1334 14.9691 14.1334 16.0001C14.1334 17.031 14.9691 17.8667 16.0001 17.8667C17.031 17.8667 17.8667 17.031 17.8667 16.0001C17.8667 14.9691 17.031 14.1334 16.0001 14.1334ZM12.2667 16.0001C12.2667 13.9382 13.9382 12.2667 16.0001 12.2667C18.0619 12.2667 19.7334 13.9382 19.7334 16.0001C19.7334 18.0619 18.0619 19.7334 16.0001 19.7334C13.9382 19.7334 12.2667 18.0619 12.2667 16.0001Z"
        fill="#05479E" />
</svg>