<svg width="32" height="32" viewBox="0 0 32 32" fill="none" xmlns="http://www.w3.org/2000/svg">
    <path
        d="M0 8C0 3.58172 3.58172 0 8 0H24C28.4183 0 32 3.58172 32 8V24C32 28.4183 28.4183 32 24 32H8C3.58172 32 0 28.4183 0 24V8Z"
        fill="white" />
    <path fill-rule="evenodd" clip-rule="evenodd"
        d="M16.2044 7.13336C18.1801 7.13297 19.4101 7.13272 20.4335 7.48011C22.3568 8.133 23.8671 9.64329 24.52 11.5666C24.8674 12.59 24.8671 13.82 24.8667 15.7957V16.2044C24.8671 18.1801 24.8674 19.4101 24.52 20.4335C23.8671 22.3568 22.3568 23.8671 20.4335 24.52C19.4101 24.8674 18.1801 24.8671 16.2044 24.8667H15.7957C13.82 24.8671 12.59 24.8674 11.5666 24.52C9.64329 23.8671 8.133 22.3568 7.48011 20.4335C7.13272 19.4101 7.13297 18.1801 7.13336 16.2044V15.7957C7.13297 13.82 7.13272 12.59 7.48011 11.5666C8.133 9.64329 9.64329 8.133 11.5666 7.48011C12.59 7.13272 13.82 7.13297 15.7957 7.13336H16.2044ZM15.4599 17.66L14.4196 18.7002C14.2003 18.9196 13.8517 18.9196 13.6268 18.7059C13.5958 18.6749 13.5649 18.6454 13.534 18.6159C13.5031 18.5864 13.4721 18.5569 13.4412 18.5259C12.862 17.9411 12.339 17.3282 11.8723 16.6871C11.4112 16.0461 11.0401 15.405 10.7702 14.7696C10.5059 14.1286 10.3709 13.5156 10.3709 12.9308C10.3709 12.5484 10.4384 12.1829 10.5734 11.8455C10.7083 11.5025 10.922 11.1876 11.22 10.9065C11.5799 10.5522 11.9735 10.3779 12.3897 10.3779C12.5471 10.3779 12.7046 10.4116 12.8451 10.4791C12.9913 10.5466 13.1207 10.6478 13.2219 10.794L14.5265 12.6328C14.6277 12.7734 14.7008 12.9027 14.7514 13.0264C14.802 13.1445 14.8301 13.2626 14.8301 13.3694C14.8301 13.5044 14.7908 13.6394 14.712 13.7687C14.6389 13.898 14.5321 14.033 14.3971 14.1679L13.9698 14.6122C13.9079 14.674 13.8798 14.7471 13.8798 14.8371C13.8798 14.8821 13.8854 14.9214 13.8967 14.9664C13.9044 14.9871 13.9121 15.0053 13.9193 15.0223C13.9278 15.0424 13.9356 15.0606 13.9417 15.0789C14.0429 15.2645 14.2172 15.5063 14.4646 15.7987C14.7177 16.0911 14.9876 16.3891 15.28 16.6871C15.3081 16.7153 15.3376 16.7434 15.3671 16.7715C15.3967 16.7996 15.4262 16.8277 15.4543 16.8558C15.6792 17.0751 15.6849 17.435 15.4599 17.66ZM21.5154 20.0367C21.5716 19.8793 21.5998 19.7162 21.5998 19.5587C21.5998 19.4013 21.566 19.2607 21.5098 19.1201C21.4479 18.9795 21.3467 18.8615 21.2005 18.7602L19.3392 17.4388C19.1986 17.3432 19.0693 17.2701 18.9456 17.2195C18.8219 17.1689 18.7094 17.1464 18.6026 17.1464C18.462 17.1464 18.3327 17.1857 18.2033 17.2645C18.074 17.3319 17.939 17.4388 17.7985 17.5794L17.3711 18.0011C17.3092 18.063 17.2361 18.0967 17.1405 18.0967C17.0899 18.0967 17.0449 18.0911 17 18.0742C16.9819 18.0665 16.965 18.0587 16.9494 18.0515C16.9308 18.043 16.914 18.0353 16.8987 18.0292C16.7807 17.9674 16.6401 17.8774 16.4826 17.7593L14.6438 19.5981C14.8519 19.7724 15.0712 19.9355 15.2905 20.0986C15.9316 20.5653 16.5782 20.9364 17.2249 21.212C17.8716 21.4875 18.4845 21.6225 19.0581 21.6225C19.4461 21.6225 19.8059 21.5494 20.1377 21.4144C20.1405 21.4144 20.1433 21.413 20.1462 21.4116C20.149 21.4102 20.1518 21.4088 20.1546 21.4088C20.4976 21.2682 20.8013 21.0489 21.0768 20.7452C21.2399 20.5653 21.3636 20.3741 21.4592 20.1717C21.4817 20.1267 21.4985 20.0817 21.5154 20.0367Z"
        fill="#05479E" />
</svg>