<svg width="32" height="32" viewBox="0 0 32 32" fill="none" xmlns="http://www.w3.org/2000/svg">
    <path
        d="M0 8C0 3.58172 3.58172 0 8 0H24C28.4183 0 32 3.58172 32 8V24C32 28.4183 28.4183 32 24 32H8C3.58172 32 0 28.4183 0 24V8Z"
        fill="white" />
    <path
        d="M16.0008 6.66719C21.1553 6.66734 25.3336 10.8462 25.3336 16.0008C25.3335 20.7763 21.7469 24.7139 17.1203 25.2672V18.6063H18.3891C18.9683 18.6063 19.5477 18.0992 19.5477 17.4477C19.5475 16.7962 19.0405 16.2899 18.3891 16.2899H17.1203V13.7555C17.1205 13.5727 17.303 13.394 17.482 13.3938H18.3891C18.9683 13.3938 19.5477 12.8143 19.5477 12.2352C19.5476 11.656 19.0406 11.0774 18.3891 11.0774H17.482C15.9999 11.0776 14.804 12.3077 14.8039 13.7555V16.2899H13.6109C12.9595 16.2899 12.4525 16.8686 12.4524 17.4477C12.4524 18.0268 13.0318 18.6063 13.6109 18.6063H14.8039V25.2578C10.2146 24.6704 6.66733 20.7498 6.66719 16.0008C6.66719 10.8461 10.8461 6.66719 16.0008 6.66719Z"
        fill="#05479E" />
</svg>