<svg width="40" height="40" viewBox="0 0 40 40" fill="none" xmlns="http://www.w3.org/2000/svg">
<path d="M0 10C0 4.47715 4.47715 0 10 0H30C35.5228 0 40 4.47715 40 10V30C40 35.5228 35.5228 40 30 40H10C4.47715 40 0 35.5228 0 30V10Z" fill="white"/>
<path d="M27.5483 25.635L28.0033 29.3217C28.12 30.29 27.0817 30.9667 26.2533 30.465L22.2167 28.0617C21.9367 27.8983 21.8667 27.5483 22.0183 27.2683C22.6017 26.195 22.9167 24.9817 22.9167 23.7683C22.9167 19.4983 19.2533 16.0217 14.75 16.0217C13.8283 16.0217 12.93 16.1617 12.09 16.4417C11.6583 16.5817 11.2383 16.185 11.3433 15.7417C12.405 11.495 16.4883 8.33333 21.365 8.33333C27.0583 8.33333 31.6667 12.6383 31.6667 17.9467C31.6667 21.0967 30.045 23.885 27.5483 25.635Z" fill="#05479E"/>
<path d="M21.1667 23.7683C21.1667 25.1567 20.6533 26.44 19.79 27.455C18.635 28.855 16.8033 29.7533 14.75 29.7533L11.705 31.5617C11.1917 31.8767 10.5383 31.445 10.6083 30.85L10.9 28.5517C9.33667 27.4667 8.33333 25.7283 8.33333 23.7683C8.33333 21.715 9.43 19.9067 11.11 18.8333C12.1483 18.1567 13.3967 17.7717 14.75 17.7717C18.2967 17.7717 21.1667 20.455 21.1667 23.7683Z" fill="#05479E"/>
</svg>
