<svg width="162" height="90" viewBox="0 0 162 90" fill="none" xmlns="http://www.w3.org/2000/svg">
<path d="M33.8118 90C53.7736 90 67.8803 76.0051 67.5091 59.0414C67.0088 36.1774 39.0323 25.0103 33.7581 0C28.0966 25.2893 0.507404 36.1774 0.00710344 59.0414C-0.36409 76.0051 13.85 90 33.8118 90Z" fill="white"/>
<path d="M33.809 88.2352C52.7325 88.2352 66.1055 75.122 65.7536 59.227C65.2793 37.8033 40.5825 28.4039 33.7581 3.90496C26.9336 28.4039 2.2368 37.8033 1.76252 59.227C1.41064 75.122 14.8854 88.2352 33.809 88.2352Z" fill="url(#paint0_linear_78_41)"/>
<path fill-rule="evenodd" clip-rule="evenodd" d="M19.4382 77.7725H17.4818V79.92H39.6391C38.7053 79.0829 38.7902 77.0739 38.8751 76.0469L37.632 76.104V73.7452L39.0015 73.631V74.5627C39.1686 73.6973 39.6609 71.7994 40.2926 71.1306V68.8405C39.7627 69.1601 39.2006 69.4736 38.6136 69.7802L39.0015 69.7195V72.0587L37.632 72.2301V70.2757C37.2735 70.4508 36.9078 70.6234 36.5365 70.7934V72.3672L35.3236 72.5189V71.3308C34.7806 71.5641 34.2294 71.7916 33.6741 72.0129L34.1889 72.0587V74.628L31.6065 74.4363V72.8036C30.8443 73.0836 30.0843 73.3512 29.3372 73.6051V77.7725H28.672V73.8287C28.2218 73.9784 27.7775 74.123 27.3417 74.262V74.4363L26.6252 74.4882C23.0875 75.5926 20.2256 76.3091 19.4382 76.488V77.7725ZM35.3236 76.2003L36.5365 76.1497V73.8366L35.3236 73.9378V76.2003Z" fill="white"/>
<path fill-rule="evenodd" clip-rule="evenodd" d="M28.672 36.894L19.4382 43.4131V70.7934C20.393 70.7302 21.6661 70.4881 23.1087 70.1347L20.4554 70.5632V68.3774L27.3417 66.9585V68.9487C27.7836 68.813 28.228 68.6736 28.672 68.532V36.894ZM27.3417 42.1476L20.4554 46.5576V48.7818L27.3417 44.7169V42.1476ZM27.3417 47.1328L20.4554 50.9292V53.1534L27.3417 49.6254V47.1328ZM27.3417 52.0413L20.4554 55.3009V57.4867L27.3417 54.6106V52.0413ZM27.3417 57.0265L20.4554 59.6725V61.8583L27.3417 59.5191V57.0265ZM27.3417 61.9733L20.4554 64.0441V66.2683L27.3417 64.5043V61.9733Z" fill="white"/>
<path fill-rule="evenodd" clip-rule="evenodd" d="M44.9487 52.2343V43.4898L29.3372 36.894V68.3179C30.1046 68.0689 30.8662 67.8149 31.6065 67.5629V66.8818L33.0305 67.0721C36.3983 65.8973 39.0496 64.8744 39.2996 64.7688C39.775 64.5679 40.1597 64.9083 40.2926 65.1037V64.0992C39.8622 64.1758 39.0015 64.2391 39.0015 63.8793V64.4659L37.632 64.7515V62.4168L39.0015 62.0884C39.0015 61.6852 39.8622 61.6391 40.2926 61.6666V50.7375L38.1407 51.6028L31.6065 49.7021V47.0945L43.2662 50.8909V51.6033L44.9487 52.2343ZM34.1889 64.9644L31.6065 64.5043V61.9733L34.1889 62.4719V64.9644ZM34.1889 60.171L31.6065 59.5191V57.0265L34.1889 57.6401V60.171ZM34.1889 55.3392V53.1917L34.4628 53.0816V52.8083L31.6065 52.0797V54.6106L34.1889 55.3392ZM43.2662 46.5576L31.6065 42.1476V44.7169L43.2662 48.8585V46.5576ZM36.5365 55.2985L35.3236 55.769V58.0619L36.5365 57.6446V55.2985ZM39.0015 54.3422L37.632 54.8734V57.2676L39.0015 56.7964V54.3422ZM39.0015 58.2536L37.632 58.6677V61.0408L39.0015 60.6695V58.2536ZM36.5365 58.9989L35.3236 59.3657V61.6666L36.5365 61.3377V58.9989ZM36.5365 62.6795L35.3236 62.9704V65.2329L36.5365 64.98V62.6795Z" fill="white"/>
<path fill-rule="evenodd" clip-rule="evenodd" d="M36.5365 76.1497L35.3236 76.2003V73.9378L36.5365 73.8366V76.1497Z" fill="white"/>
<path fill-rule="evenodd" clip-rule="evenodd" d="M54.4956 79.92V77.7725H51.7958V62.4704L49.7379 63.845L50.5829 64.0441V66.1379L49.7957 65.9836C49.9345 67.1714 48.0215 67.3199 47.6192 66.9452C46.3967 65.8068 47.2467 68.452 48.1285 69.5662C48.4811 70.0116 48.789 70.454 49.057 70.8921V70.6375L50.5829 70.8316V72.9407L50.0313 72.8888C50.1948 73.3315 50.3221 73.7669 50.4186 74.193L50.5829 74.2062V75.1133C50.8293 76.9849 50.5208 78.6412 50.166 79.92H54.4956ZM50.5829 67.4187L49.057 67.1455V69.3361L50.5829 69.5662V67.4187Z" fill="white"/>
<path fill-rule="evenodd" clip-rule="evenodd" d="M51.7958 54.8023L44.9487 52.2343L43.2662 51.6033L40.9578 50.7375V61.5924C41.2301 61.3489 42.6123 61.2148 44.0184 61.1467L42.4446 60.7462V58.3303L44.3286 58.8541V61.1327C44.8332 61.1116 45.3306 61.0986 45.7703 61.0918V59.2549L47.531 59.7444V60.4254C48.0587 60.0529 48.6965 59.5592 49.332 59.0268L49.057 58.9439V56.7503L50.5829 57.2676V57.9196C51.0614 57.4691 51.4866 57.0303 51.7958 56.6491V54.8023ZM44.3286 55.1475L42.4446 54.5088V56.9498L44.3286 57.518V55.1475ZM47.531 56.2331L45.7703 55.6362V57.9527L47.531 58.4837V56.2331Z" fill="white"/>
<path d="M40.9578 70.2936C41.3698 69.9029 42.244 68.8873 42.4446 67.9497V66.6901C42.2753 66.9984 41.741 67.6986 40.9578 68.0334V70.2936Z" fill="white"/>
<path d="M16.2485 37.4218C18.2049 37.4218 19.7909 35.657 19.7909 33.48C19.7909 35.657 21.3769 37.4218 23.3334 37.4218C21.3769 37.4218 19.7909 39.1866 19.7909 41.3636C19.7909 39.1866 18.2049 37.4218 16.2485 37.4218Z" fill="#B8F0FF"/>
<path d="M11.8054 41.1631C13.165 41.1631 14.2671 39.9368 14.2671 38.4239C14.2671 39.9368 15.3692 41.1631 16.7288 41.1631C15.3692 41.1631 14.2671 42.3895 14.2671 43.9023C14.2671 42.3895 13.165 41.1631 11.8054 41.1631Z" fill="#B8F0FF"/>
<path d="M45.909 37.0877C47.3349 37.0877 48.4908 35.8015 48.4908 34.2149C48.4908 35.8015 49.6467 37.0877 51.0726 37.0877C49.6467 37.0877 48.4908 38.374 48.4908 39.9606C48.4908 38.374 47.3349 37.0877 45.909 37.0877Z" fill="#B8F0FF"/>
<path d="M43.8676 39.7601C44.564 39.7601 45.1285 39.132 45.1285 38.3571C45.1285 39.132 45.693 39.7601 46.3893 39.7601C45.693 39.7601 45.1285 40.3883 45.1285 41.1631C45.1285 40.3883 44.564 39.7601 43.8676 39.7601Z" fill="#B8F0FF"/>
<path d="M40.8655 36.8205C41.7608 36.8205 42.4866 36.0129 42.4866 35.0166C42.4866 36.0129 43.2124 36.8205 44.1078 36.8205C43.2124 36.8205 42.4866 37.6281 42.4866 38.6244C42.4866 37.6281 41.7608 36.8205 40.8655 36.8205Z" fill="#B8F0FF"/>
<path fill-rule="evenodd" clip-rule="evenodd" d="M39.6046 62.0147C39.4846 62.0147 39.3645 62.1483 39.3645 62.2819V63.4845C39.3645 63.6181 39.4846 63.7517 39.6046 63.7517H40.5653C40.7454 63.7517 41.1657 64.1526 41.1657 64.4198C41.1657 64.9267 40.9365 65.4729 40.7264 65.9732C40.5489 66.3961 40.3852 66.7862 40.3852 67.0922C40.3852 67.2926 40.5653 67.4263 40.6854 67.4263C41.2858 67.4263 42.3666 65.9564 42.6067 65.0879C43.027 65.0879 43.3873 65.5556 43.3873 65.9564C43.2071 65.9564 42.9391 65.9564 42.9391 66.09V67.7603H42.6668C42.6668 69.1242 42.1162 69.7085 41.4647 70.3999C40.5206 71.4019 39.3645 72.6289 39.3645 76.7796C39.3645 77.005 39.3728 77.2291 39.3886 77.4477C39.485 78.7847 39.8607 79.9197 40.3251 79.9197H49.1513C49.9318 79.9197 50.1119 78.5167 50.1119 76.7796C50.1119 72.9675 48.8989 71.4932 47.9301 70.3157C47.2859 69.5327 46.7496 68.8809 46.7496 67.7603H46.4494V66.09C46.4494 65.9564 46.2092 65.9564 46.0012 65.9564C46.0012 65.4888 46.2693 64.8875 46.7496 64.8875C46.9105 65.5556 47.8904 66.4909 48.5508 66.4909C48.9111 66.4909 49.2113 66.4241 49.2113 66.09C49.2113 65.9727 49.1341 65.9126 49.0249 65.8276C48.7611 65.6223 48.3107 65.2718 48.3107 63.6181C48.3107 62.8772 47.4369 61.9905 46.1737 61.7458C45.9561 61.7037 45.727 61.6806 45.4887 61.6806C45.2774 61.6806 45.0537 61.6796 44.8247 61.6786C44.5019 61.6772 44.1667 61.6757 43.8339 61.6768C42.4571 61.6815 41.1204 61.7311 40.8655 62.0147H39.6046ZM44.2879 68.7624H43.3873C43.3272 68.7624 43.2672 68.8293 43.2672 68.8961C43.2672 69.4219 42.7933 69.9477 42.2381 70.5637C41.453 71.4348 40.5053 72.4864 40.5053 73.9736V75.6439C40.7589 73.8801 41.8494 72.7496 42.8224 71.7409C43.6922 70.8393 44.468 70.035 44.468 68.9629C44.468 68.8293 44.408 68.7624 44.2879 68.7624ZM46.2092 68.9629C46.2092 69.6908 46.5612 70.3207 46.981 71.0723C47.6017 72.1833 48.3707 73.5599 48.3707 75.9111C48.3707 78.5835 48.3707 78.7839 44.0477 78.7839C42.9069 78.7839 42.1864 78.7839 41.1057 78.6503C42.3666 79.1848 45.0684 79.1848 48.5508 79.1848C49.1513 79.1848 49.3314 77.7818 49.3314 76.7128C49.3314 72.9315 48.1586 71.5691 47.2148 70.4728C46.7913 69.9808 46.4138 69.5424 46.2092 68.9629ZM45.5488 65.0879C45.5488 65.2215 45.4887 65.3551 45.3686 65.3551H44.468C44.3479 65.3551 44.2879 65.2215 44.2879 65.0879C44.2879 64.2194 45.1285 63.5513 45.7889 63.5513C46.4494 63.5513 46.9297 64.0858 46.9297 64.5534C46.8096 64.4198 46.6295 64.353 46.4494 64.353C45.9691 64.353 45.5488 64.7538 45.5488 65.0879ZM42.1864 62.2819C47.0498 62.1483 47.35 62.7496 47.7103 64.4866C47.8303 62.95 46.6295 62.2151 45.7289 62.1483C44.4372 62.0524 43.615 62.1363 42.429 62.2572L42.322 62.2681L42.2629 62.2741C42.2376 62.2767 42.2121 62.2793 42.1864 62.2819ZM43.6274 66.0901V65.9564H45.7889V66.0901H43.6274ZM44.1078 67.5599V67.6267H45.7289V67.5599H44.1078ZM42.3666 74.7085C43.0629 74.7085 43.6274 74.0804 43.6274 73.3055C43.6274 74.0804 44.1919 74.7085 44.8883 74.7085C44.1919 74.7085 43.6274 75.3367 43.6274 76.1115C43.6274 75.3367 43.0629 74.7085 42.3666 74.7085Z" fill="#8CFF8B"/>
<path d="M18.2299 62.95C16.2485 64.9543 14.2671 66.4909 14.2671 68.6957C14.2671 70.5663 16.9089 71.3012 18.6501 71.3012C22.7331 71.3012 31.5939 68.7032 39.3318 65.2447C39.5428 65.237 39.9409 65.3151 39.8448 65.6892C39.7247 66.1569 39.0042 68.4586 39.9649 68.5103C30.8914 72.8278 20.3605 76.2452 15.588 76.2452C11.9255 76.2452 9.3437 74.6417 9.3437 72.0362C9.3437 70.2991 10.4845 68.6957 11.8054 67.2927C10.4245 69.297 10.0642 70.1655 10.0642 71.7689C10.0642 73.6396 12.2857 75.3098 15.588 75.3098C20.6916 75.3098 29.4576 72.3034 37.8634 68.228C28.8572 71.8357 20.3313 74.5081 15.588 74.5081C13.1864 74.5081 10.9648 73.506 10.9648 71.4349C10.9648 68.6957 14.147 65.2884 18.2299 62.95Z" fill="#B8F0FF"/>
<path d="M53.2941 54.3315C53.2941 51.8595 49.8718 50.9242 46.5695 50.657C51.2527 50.3229 55.6958 50.991 55.6958 56.0686C55.6958 58.2176 53.0569 60.8351 49.0912 63.4632C49.0912 62.8049 48.0705 61.2129 47.2299 61.0965C50.8547 58.7936 53.2941 56.4155 53.2941 54.3315Z" fill="#B8F0FF"/>
<path d="M77.1046 57.7602C76.9135 57.7602 76.7414 57.6943 76.5885 57.5625C76.4548 57.4308 76.3879 57.2614 76.3879 57.0543V50.9841L69.7368 38.9001C69.7177 38.8437 69.6986 38.7966 69.6795 38.759C69.6604 38.7025 69.6508 38.646 69.6508 38.5896C69.6508 38.439 69.7082 38.3072 69.8228 38.1943C69.9566 38.0625 70.1095 37.9967 70.2815 37.9967H73.8651C74.1517 37.9967 74.3715 38.0719 74.5244 38.2225C74.6964 38.3543 74.8016 38.4766 74.8398 38.5896L78.968 45.8738L83.0962 38.5896C83.1536 38.4766 83.2587 38.3543 83.4116 38.2225C83.5836 38.0719 83.813 37.9967 84.0996 37.9967H87.6832C87.8552 37.9967 87.9985 38.0625 88.1132 38.1943C88.2279 38.3072 88.2852 38.439 88.2852 38.5896C88.2852 38.646 88.2756 38.7025 88.2565 38.759C88.2565 38.7966 88.247 38.8437 88.2279 38.9001L81.5482 50.9841V57.0543C81.5482 57.2614 81.4813 57.4308 81.3475 57.5625C81.2137 57.6943 81.0417 57.7602 80.8315 57.7602H77.1046Z" fill="#0B4A9E"/>
<path d="M87.2706 57.7602C87.1177 57.7602 86.9744 57.7037 86.8406 57.5908C86.7259 57.459 86.6686 57.3179 86.6686 57.1673C86.6686 57.0732 86.6781 56.9885 86.6973 56.9132L93.4343 38.7872C93.4916 38.5802 93.6063 38.4013 93.7783 38.2508C93.9694 38.0814 94.2275 37.9967 94.5524 37.9967H98.7953C99.1202 37.9967 99.3686 38.0814 99.5406 38.2508C99.7318 38.4013 99.856 38.5802 99.9133 38.7872L106.622 56.9132C106.66 56.9885 106.679 57.0732 106.679 57.1673C106.679 57.3179 106.612 57.459 106.478 57.5908C106.364 57.7037 106.22 57.7602 106.048 57.7602H102.522C102.235 57.7602 102.016 57.6943 101.863 57.5625C101.729 57.412 101.643 57.2802 101.605 57.1673L100.487 54.2874H92.8323L91.7429 57.1673C91.7046 57.2802 91.6186 57.412 91.4849 57.5625C91.3511 57.6943 91.1217 57.7602 90.7968 57.7602H87.2706ZM94.0077 50.2218H99.34L96.6451 42.7681L94.0077 50.2218Z" fill="#0B4A9E"/>
<path d="M109.655 57.7602C109.445 57.7602 109.273 57.6943 109.139 57.5625C109.006 57.4308 108.939 57.2614 108.939 57.0543V38.7025C108.939 38.4955 109.006 38.326 109.139 38.1943C109.273 38.0625 109.445 37.9967 109.655 37.9967H112.694C113.019 37.9967 113.248 38.0719 113.382 38.2225C113.535 38.3543 113.631 38.4578 113.669 38.5331L120.664 49.403V38.7025C120.664 38.4955 120.731 38.326 120.865 38.1943C120.998 38.0625 121.17 37.9967 121.381 37.9967H124.821C125.031 37.9967 125.203 38.0625 125.337 38.1943C125.471 38.326 125.538 38.4955 125.538 38.7025V57.0543C125.538 57.2426 125.471 57.412 125.337 57.5625C125.203 57.6943 125.031 57.7602 124.821 57.7602H121.753C121.448 57.7602 121.218 57.6849 121.065 57.5343C120.932 57.3837 120.846 57.2802 120.807 57.2237L113.812 46.7773V57.0543C113.812 57.2614 113.745 57.4308 113.612 57.5625C113.478 57.6943 113.306 57.7602 113.096 57.7602H109.655Z" fill="#0B4A9E"/>
<path d="M137.026 58.0425C135.115 58.0425 133.529 57.779 132.267 57.252C131.006 56.7061 130.05 56.0003 129.401 55.1345C128.751 54.2686 128.407 53.3463 128.369 52.3676C128.369 52.217 128.426 52.0852 128.541 51.9723C128.674 51.8405 128.827 51.7747 128.999 51.7747H132.612C132.879 51.7747 133.08 51.8217 133.214 51.9158C133.366 52.0099 133.5 52.1323 133.615 52.2829C133.768 52.5652 133.978 52.8381 134.246 53.1016C134.532 53.3651 134.895 53.5816 135.335 53.751C135.794 53.9016 136.357 53.9769 137.026 53.9769C138.135 53.9769 138.966 53.8075 139.521 53.4687C140.094 53.1299 140.381 52.6687 140.381 52.0852C140.381 51.6711 140.228 51.3323 139.922 51.0688C139.616 50.7865 139.119 50.5418 138.431 50.3347C137.762 50.1089 136.864 49.883 135.736 49.6571C134.284 49.356 133.042 48.9701 132.009 48.4996C130.997 48.0102 130.222 47.3796 129.687 46.6079C129.152 45.8174 128.885 44.8386 128.885 43.6716C128.885 42.5234 129.21 41.4976 129.859 40.5941C130.528 39.6907 131.455 38.9848 132.64 38.4766C133.825 37.9684 135.23 37.7143 136.854 37.7143C138.173 37.7143 139.329 37.8837 140.323 38.2225C141.336 38.5613 142.187 39.0131 142.875 39.5777C143.563 40.1424 144.079 40.7447 144.423 41.3847C144.786 42.0058 144.977 42.6176 144.996 43.2199C144.996 43.3705 144.939 43.5116 144.824 43.6434C144.71 43.7563 144.566 43.8128 144.394 43.8128H140.61C140.4 43.8128 140.218 43.7751 140.065 43.6998C139.912 43.6246 139.779 43.5022 139.664 43.3328C139.549 42.9187 139.243 42.5611 138.747 42.2599C138.269 41.94 137.638 41.78 136.854 41.78C136.013 41.78 135.354 41.9305 134.876 42.2317C134.418 42.514 134.188 42.9564 134.188 43.5587C134.188 43.9351 134.312 44.2645 134.561 44.5469C134.829 44.8292 135.259 45.0739 135.851 45.2809C136.463 45.488 137.294 45.7044 138.345 45.9303C140.084 46.2503 141.489 46.655 142.559 47.1443C143.63 47.6149 144.413 48.236 144.91 49.0078C145.407 49.7607 145.656 50.7112 145.656 51.8594C145.656 53.1393 145.283 54.2498 144.538 55.1909C143.811 56.1132 142.798 56.8191 141.499 57.3084C140.199 57.7978 138.708 58.0425 137.026 58.0425Z" fill="#0B4A9E"/>
<path d="M78.9674 76.6153C77.9184 76.6153 76.9899 76.4268 76.1819 76.0499C75.3739 75.673 74.7289 75.1285 74.2469 74.4165C73.7791 73.6905 73.524 72.825 73.4814 71.8198C73.4673 71.5964 73.4602 71.3172 73.4602 70.9822C73.4602 70.6331 73.4673 70.3469 73.4814 70.1236C73.524 69.1044 73.7791 68.2389 74.2469 67.5269C74.7147 66.8009 75.3526 66.2495 76.1606 65.8725C76.9828 65.4956 77.9184 65.3071 78.9674 65.3071C79.9455 65.3071 80.7819 65.4467 81.4765 65.7259C82.1711 65.9912 82.7382 66.3262 83.1776 66.7311C83.617 67.136 83.9431 67.5548 84.1557 67.9876C84.3825 68.4064 84.503 68.7764 84.5172 69.0975C84.5314 69.2371 84.4818 69.3627 84.3684 69.4744C84.255 69.5721 84.1274 69.621 83.9856 69.621H81.2851C81.1292 69.621 81.0087 69.5861 80.9237 69.5163C80.8386 69.4465 80.7606 69.3418 80.6898 69.2022C80.5197 68.7694 80.2999 68.4622 80.0306 68.2807C79.7754 68.0993 79.4423 68.0085 79.0312 68.0085C78.4642 68.0085 78.0247 68.19 77.7129 68.553C77.4152 68.916 77.2522 69.4744 77.2238 70.2283C77.2096 70.7867 77.2096 71.2823 77.2238 71.7151C77.2522 72.4829 77.4152 73.0414 77.7129 73.3904C78.0247 73.7394 78.4642 73.9139 79.0312 73.9139C79.4707 73.9139 79.818 73.8232 80.0731 73.6417C80.3283 73.4602 80.5338 73.153 80.6898 72.7203C80.7606 72.5807 80.8386 72.476 80.9237 72.4062C81.0087 72.3363 81.1292 72.3014 81.2851 72.3014H83.9856C84.1274 72.3014 84.255 72.3573 84.3684 72.469C84.4818 72.5667 84.5314 72.6854 84.5172 72.825C84.503 73.0623 84.4321 73.3415 84.3046 73.6626C84.177 73.9698 83.9785 74.2978 83.7092 74.6469C83.4398 74.9959 83.0855 75.3239 82.646 75.6311C82.2207 75.9243 81.7033 76.1616 81.0938 76.3431C80.4842 76.5246 79.7754 76.6153 78.9674 76.6153Z" fill="#0B4A9E"/>
<path d="M86.9592 76.4059C86.8032 76.4059 86.6757 76.357 86.5764 76.2593C86.4772 76.1616 86.4276 76.0359 86.4276 75.8824V62.0612C86.4276 61.9077 86.4772 61.782 86.5764 61.6843C86.6757 61.5866 86.8032 61.5377 86.9592 61.5377H89.4683C89.6242 61.5377 89.7518 61.5866 89.851 61.6843C89.9503 61.782 89.9999 61.9077 89.9999 62.0612V75.8824C89.9999 76.0359 89.9503 76.1616 89.851 76.2593C89.7518 76.357 89.6242 76.4059 89.4683 76.4059H86.9592Z" fill="#0B4A9E"/>
<path d="M97.615 76.6153C95.9423 76.6153 94.6098 76.1686 93.6175 75.2751C92.6252 74.3816 92.1078 73.0553 92.0652 71.2963C92.0652 71.1985 92.0652 71.0729 92.0652 70.9193C92.0652 70.7658 92.0652 70.6471 92.0652 70.5633C92.1078 69.4604 92.3559 68.5181 92.8095 67.7363C93.2773 66.9405 93.9152 66.3402 94.7232 65.9353C95.5454 65.5165 96.5022 65.3071 97.5938 65.3071C98.8412 65.3071 99.869 65.5514 100.677 66.04C101.499 66.5287 102.116 67.1918 102.527 68.0295C102.938 68.8671 103.144 69.8234 103.144 70.8984V71.401C103.144 71.5545 103.087 71.6802 102.973 71.7779C102.874 71.8756 102.754 71.9245 102.612 71.9245H95.8076C95.8076 71.9385 95.8076 71.9594 95.8076 71.9873C95.8076 72.0153 95.8076 72.0432 95.8076 72.0711C95.8218 72.476 95.8927 72.8459 96.0203 73.181C96.1479 73.516 96.3463 73.7813 96.6156 73.9767C96.885 74.1722 97.211 74.2699 97.5938 74.2699C97.8773 74.2699 98.1112 74.228 98.2955 74.1443C98.4939 74.0465 98.6569 73.9418 98.7845 73.8301C98.9121 73.7045 99.0113 73.5998 99.0822 73.516C99.2098 73.3764 99.309 73.2927 99.3799 73.2647C99.465 73.2229 99.5925 73.2019 99.7627 73.2019H102.399C102.541 73.2019 102.654 73.2438 102.74 73.3276C102.839 73.3974 102.881 73.5021 102.867 73.6417C102.853 73.879 102.732 74.1652 102.506 74.5003C102.279 74.8353 101.946 75.1704 101.506 75.5054C101.081 75.8265 100.542 76.0918 99.8902 76.3012C99.2382 76.5106 98.4797 76.6153 97.615 76.6153ZM95.8076 69.8513H99.4012V69.8095C99.4012 69.3627 99.3303 68.9718 99.1885 68.6367C99.061 68.3017 98.8554 68.0434 98.5719 67.8619C98.3026 67.6804 97.9765 67.5897 97.5938 67.5897C97.211 67.5897 96.885 67.6804 96.6156 67.8619C96.3605 68.0434 96.162 68.3017 96.0203 68.6367C95.8785 68.9718 95.8076 69.3627 95.8076 69.8095V69.8513Z" fill="#0B4A9E"/>
<path d="M108.454 76.6153C107.689 76.6153 107.001 76.4757 106.392 76.1965C105.796 75.9033 105.321 75.5124 104.967 75.0238C104.613 74.5352 104.435 73.9837 104.435 73.3694C104.435 72.3782 104.846 71.5964 105.669 71.024C106.491 70.4377 107.582 70.0398 108.943 69.8304L111.601 69.4325V69.1393C111.601 68.6367 111.495 68.2528 111.282 67.9876C111.07 67.7223 110.68 67.5897 110.113 67.5897C109.716 67.5897 109.39 67.6665 109.135 67.82C108.894 67.9736 108.702 68.183 108.56 68.4483C108.433 68.6298 108.256 68.7205 108.029 68.7205H105.647C105.491 68.7205 105.371 68.6786 105.286 68.5949C105.201 68.4971 105.165 68.3855 105.18 68.2598C105.18 68.0085 105.272 67.7223 105.456 67.4012C105.654 67.0662 105.952 66.7381 106.349 66.417C106.746 66.0959 107.256 65.8306 107.88 65.6212C108.504 65.4118 109.255 65.3071 110.134 65.3071C111.055 65.3071 111.842 65.4118 112.494 65.6212C113.146 65.8306 113.671 66.1238 114.068 66.5007C114.479 66.8777 114.784 67.3244 114.982 67.841C115.18 68.3436 115.28 68.902 115.28 69.5163V75.8824C115.28 76.0359 115.223 76.1616 115.11 76.2593C115.01 76.357 114.89 76.4059 114.748 76.4059H112.282C112.126 76.4059 111.998 76.357 111.899 76.2593C111.8 76.1616 111.75 76.0359 111.75 75.8824V75.1494C111.566 75.4147 111.318 75.659 111.006 75.8824C110.694 76.1057 110.325 76.2803 109.9 76.4059C109.489 76.5455 109.007 76.6153 108.454 76.6153ZM109.454 74.228C109.865 74.228 110.233 74.1443 110.559 73.9767C110.899 73.7952 111.162 73.523 111.346 73.16C111.544 72.7831 111.644 72.3154 111.644 71.757V71.4638L109.836 71.7779C109.17 71.8896 108.681 72.0641 108.369 72.3014C108.071 72.5248 107.923 72.7901 107.923 73.0972C107.923 73.3345 107.993 73.537 108.135 73.7045C108.277 73.872 108.461 74.0047 108.688 74.1024C108.915 74.1861 109.17 74.228 109.454 74.228Z" fill="#0B4A9E"/>
<path d="M118.211 76.4059C118.055 76.4059 117.927 76.357 117.828 76.2593C117.729 76.1616 117.679 76.0359 117.679 75.8824V66.04C117.679 65.8865 117.729 65.7608 117.828 65.6631C117.927 65.5654 118.055 65.5165 118.211 65.5165H120.656C120.812 65.5165 120.94 65.5654 121.039 65.6631C121.138 65.7608 121.188 65.8865 121.188 66.04V66.8358C121.556 66.403 122.038 66.04 122.634 65.7469C123.229 65.4537 123.931 65.3071 124.739 65.3071C125.561 65.3071 126.284 65.4886 126.908 65.8516C127.545 66.2146 128.042 66.752 128.396 67.464C128.765 68.1621 128.949 69.0207 128.949 70.0398V75.8824C128.949 76.0359 128.892 76.1616 128.779 76.2593C128.68 76.357 128.559 76.4059 128.417 76.4059H125.738C125.596 76.4059 125.469 76.357 125.355 76.2593C125.256 76.1616 125.206 76.0359 125.206 75.8824V70.1654C125.206 69.5093 125.043 69.0067 124.717 68.6577C124.406 68.2947 123.938 68.1132 123.314 68.1132C122.733 68.1132 122.265 68.2947 121.911 68.6577C121.57 69.0067 121.4 69.5093 121.4 70.1654V75.8824C121.4 76.0359 121.344 76.1616 121.23 76.2593C121.131 76.357 121.01 76.4059 120.869 76.4059H118.211Z" fill="#0B4A9E"/>
<path d="M131.853 76.4059C131.698 76.4059 131.57 76.357 131.471 76.2593C131.371 76.1616 131.322 76.0359 131.322 75.8824V66.04C131.322 65.8865 131.371 65.7608 131.471 65.6631C131.57 65.5654 131.698 65.5165 131.853 65.5165H134.363C134.504 65.5165 134.625 65.5654 134.724 65.6631C134.837 65.7608 134.894 65.8865 134.894 66.04V75.8824C134.894 76.0359 134.837 76.1616 134.724 76.2593C134.625 76.357 134.504 76.4059 134.363 76.4059H131.853ZM131.832 63.9459C131.676 63.9459 131.549 63.8971 131.449 63.7993C131.35 63.7016 131.301 63.576 131.301 63.4224V61.5586C131.301 61.4051 131.35 61.2794 131.449 61.1817C131.549 61.07 131.676 61.0142 131.832 61.0142H134.363C134.518 61.0142 134.646 61.07 134.745 61.1817C134.859 61.2794 134.915 61.4051 134.915 61.5586V63.4224C134.915 63.576 134.859 63.7016 134.745 63.7993C134.646 63.8971 134.518 63.9459 134.363 63.9459H131.832Z" fill="#0B4A9E"/>
<path d="M137.917 76.4059C137.761 76.4059 137.633 76.357 137.534 76.2593C137.435 76.1616 137.385 76.0359 137.385 75.8824V66.04C137.385 65.8865 137.435 65.7608 137.534 65.6631C137.633 65.5654 137.761 65.5165 137.917 65.5165H140.362C140.518 65.5165 140.646 65.5654 140.745 65.6631C140.844 65.7608 140.894 65.8865 140.894 66.04V66.8358C141.262 66.403 141.744 66.04 142.34 65.7469C142.935 65.4537 143.637 65.3071 144.445 65.3071C145.267 65.3071 145.99 65.4886 146.614 65.8516C147.252 66.2146 147.748 66.752 148.102 67.464C148.471 68.1621 148.655 69.0207 148.655 70.0398V75.8824C148.655 76.0359 148.598 76.1616 148.485 76.2593C148.386 76.357 148.265 76.4059 148.123 76.4059H145.444C145.302 76.4059 145.175 76.357 145.061 76.2593C144.962 76.1616 144.913 76.0359 144.913 75.8824V70.1654C144.913 69.5093 144.75 69.0067 144.424 68.6577C144.112 68.2947 143.644 68.1132 143.02 68.1132C142.439 68.1132 141.971 68.2947 141.617 68.6577C141.277 69.0067 141.106 69.5093 141.106 70.1654V75.8824C141.106 76.0359 141.05 76.1616 140.936 76.2593C140.837 76.357 140.717 76.4059 140.575 76.4059H137.917Z" fill="#0B4A9E"/>
<path d="M156.45 81.013C155.359 81.013 154.451 80.8733 153.728 80.5941C153.02 80.3149 152.453 79.9799 152.027 79.589C151.616 79.1981 151.319 78.8072 151.134 78.4163C150.95 78.0393 150.851 77.7392 150.837 77.5158C150.822 77.3622 150.872 77.2366 150.985 77.1388C151.099 77.0411 151.234 76.9923 151.389 76.9923H154.09C154.218 76.9923 154.324 77.0202 154.409 77.076C154.508 77.1458 154.586 77.2575 154.643 77.4111C154.714 77.5647 154.806 77.7252 154.919 77.8927C155.047 78.0603 155.217 78.1929 155.43 78.2906C155.656 78.4023 155.961 78.4581 156.344 78.4581C156.769 78.4581 157.124 78.3883 157.407 78.2487C157.691 78.1231 157.903 77.9067 158.045 77.5996C158.187 77.3064 158.258 76.9085 158.258 76.4059V75.0028C157.932 75.3519 157.513 75.6381 157.003 75.8614C156.493 76.0708 155.876 76.1756 155.153 76.1756C154.43 76.1756 153.792 76.0708 153.239 75.8614C152.687 75.652 152.226 75.3379 151.857 74.9191C151.489 74.5003 151.198 73.9907 150.985 73.3904C150.787 72.7901 150.667 72.099 150.624 71.3172C150.61 70.9542 150.61 70.5913 150.624 70.2283C150.667 69.4744 150.787 68.7973 150.985 68.197C151.184 67.5967 151.467 67.0801 151.836 66.6473C152.219 66.2146 152.687 65.8865 153.239 65.6631C153.792 65.4258 154.43 65.3071 155.153 65.3071C155.919 65.3071 156.571 65.4537 157.109 65.7469C157.662 66.0261 158.116 66.3821 158.47 66.8149V66.04C158.47 65.9004 158.52 65.7818 158.619 65.684C158.718 65.5724 158.846 65.5165 159.002 65.5165H161.447C161.603 65.5165 161.731 65.5724 161.83 65.684C161.943 65.7818 162 65.9004 162 66.04V76.1127C162 77.1737 161.78 78.0672 161.341 78.7932C160.901 79.5192 160.271 80.0706 159.448 80.4475C158.626 80.8245 157.627 81.013 156.45 81.013ZM156.301 73.4532C156.755 73.4532 157.124 73.3555 157.407 73.16C157.691 72.9646 157.896 72.7133 158.024 72.4062C158.165 72.099 158.243 71.7709 158.258 71.4219C158.272 71.2683 158.279 71.052 158.279 70.7727C158.279 70.4935 158.272 70.2841 158.258 70.1445C158.243 69.7815 158.165 69.4465 158.024 69.1393C157.896 68.8322 157.691 68.5879 157.407 68.4064C157.124 68.2109 156.755 68.1132 156.301 68.1132C155.834 68.1132 155.458 68.2109 155.174 68.4064C154.905 68.6018 154.707 68.8671 154.579 69.2022C154.466 69.5372 154.395 69.9072 154.366 70.312C154.352 70.6192 154.352 70.9333 154.366 71.2544C154.395 71.6592 154.466 72.0292 154.579 72.3643C154.707 72.6993 154.905 72.9646 155.174 73.16C155.458 73.3555 155.834 73.4532 156.301 73.4532Z" fill="#0B4A9E"/>
<defs>
<linearGradient id="paint0_linear_78_41" x1="81" y1="0" x2="81" y2="90" gradientUnits="userSpaceOnUse">
<stop stop-color="#47C8F5"/>
<stop offset="1" stop-color="#09479C"/>
</linearGradient>
</defs>
</svg>
